<svg width="180" height="112" viewBox="0 0 180 112" fill="none" xmlns="http://www.w3.org/2000/svg">
<path d="M0.756641 87.6587C9.96381 91.2396 18.1136 91.5066 27.8285 89.3705C29.3308 89.5946 27.3732 90.8009 26.8864 91.1776C22.432 94.3866 15.1772 94.4677 9.45084 94.1959C23.327 101.539 40.9981 107.828 57.0832 106.207C75.7592 104.667 95.0791 92.508 96.9896 74.6033C85.4218 70.8602 73.7021 64.3516 67.7455 54.2096C61.4329 40.5009 77.0102 33.5679 89.6354 41.8789C99.8737 48.6212 105.228 60.2128 105.637 71.5993C154.159 80.5111 185.785 42.1221 175.63 0.490715C175.615 0.439943 175.612 0.386973 175.621 0.335042C175.629 0.28311 175.649 0.233307 175.68 0.188679C175.71 0.144051 175.75 0.105534 175.797 0.0754816C175.845 0.045429 175.898 0.0244726 175.955 0.0138925C176.009 0.00025168 176.066 -0.00339138 176.122 0.00317352C176.177 0.00973842 176.231 0.0263804 176.28 0.0521283C176.329 0.0778762 176.371 0.112212 176.405 0.153132C176.439 0.194052 176.464 0.240734 176.478 0.290451C189.192 43.5097 155.923 84.1683 105.328 76.5487C103.679 89.8091 93.3256 101.148 80.4439 106.908C57.5019 117.489 27.3993 110.289 8.07423 96.1652C8.56625 98.5493 10.0371 100.685 10.5396 103.06C11.1258 105.84 9.96905 110.928 8.58196 109.354C7.96626 106.702 7.12804 104.098 6.07471 101.563C5.05925 98.9832 3.82396 96.0984 2.67764 93.5665L2.44733 93.0897L0.175639 88.2356C0.137173 88.1596 0.124216 88.075 0.138404 87.9923C0.152592 87.9097 0.193291 87.8327 0.255381 87.771C0.31747 87.7094 0.398181 87.6658 0.487369 87.6458C0.576557 87.6258 0.670235 87.6303 0.756641 87.6587ZM91.4726 53.9998C83.6683 40.3388 65.8245 42.6228 76.0942 55.4827C81.729 61.5472 88.9212 66.2497 97.0315 69.1723C96.4815 63.7931 94.5794 58.6016 91.4726 53.9998Z" fill="#FFC900"/>
<path d="M168.641 63.2072C168.604 63.1658 168.556 63.1336 168.501 63.1135C168.447 63.0934 168.388 63.0862 168.329 63.0923C168.271 63.0985 168.215 63.1179 168.167 63.1488C168.119 63.1797 168.081 63.2211 168.055 63.2692C163.276 72.0046 152.582 78.2843 143.103 78.9328C143.018 78.9377 142.938 78.972 142.879 79.0287C142.821 79.0854 142.789 79.1602 142.789 79.238C142.79 79.316 142.819 79.3915 142.872 79.4528C142.925 79.514 142.999 79.5575 143.082 79.5765C153.985 82.0179 165.066 72.5672 168.73 63.808C168.773 63.7081 168.785 63.5996 168.766 63.4938C168.746 63.3881 168.696 63.2891 168.62 63.2072H168.641Z" fill="#FFC900"/>
<path d="M66.4574 34.3546C60.2181 33.7252 56.3499 40.9109 59.3021 45.622C59.3209 45.6543 59.3512 45.6798 59.3881 45.6944C59.4249 45.709 59.466 45.7119 59.5049 45.7025C59.5437 45.6931 59.5779 45.672 59.6019 45.6427C59.6259 45.6133 59.6383 45.5775 59.6371 45.5409C59.6371 40.9014 61.5738 36.4813 66.4993 34.6693C66.5377 34.6572 66.5705 34.6335 66.5921 34.6021C66.6137 34.5706 66.6228 34.5334 66.6179 34.4966C66.613 34.4598 66.5944 34.4256 66.5652 34.3998C66.536 34.3739 66.4979 34.358 66.4574 34.3546Z" fill="#FFC900"/>
<path d="M169.826 60.2937C170.323 60.3331 170.817 60.2021 171.213 59.9266C171.513 59.7302 171.741 59.456 171.868 59.1398C171.989 58.8336 172.005 58.5011 171.915 58.1862C171.793 57.7587 171.53 57.3757 171.161 57.0895C170.718 57.1998 170.305 57.3912 169.947 57.6521C169.704 57.8266 169.521 58.0592 169.416 58.3238C169.312 58.5884 169.291 58.8744 169.355 59.1494C169.455 59.5484 169.613 59.9334 169.826 60.2937Z" fill="#FFC900"/>
<path d="M59.9967 48.6498C59.9917 48.6228 59.9773 48.598 59.9557 48.579C59.9341 48.56 59.9064 48.5478 59.8767 48.5441C59.8469 48.5403 59.8167 48.5454 59.7903 48.5584C59.7639 48.5714 59.7427 48.5917 59.7298 48.6164C59.5861 48.8763 59.5024 49.1603 59.4838 49.4508C59.4612 49.8439 59.5216 50.2372 59.6618 50.6095C59.8014 50.9803 60.0202 51.3222 60.3056 51.6156C60.5145 51.8359 60.7711 52.0145 61.0593 52.1401C61.0859 52.1504 61.1152 52.1533 61.1435 52.1484C61.1719 52.1436 61.1981 52.1312 61.2188 52.1129C61.2394 52.0946 61.2537 52.0711 61.2598 52.0454C61.2659 52.0197 61.2635 51.9929 61.253 51.9685C61.1221 51.7205 61.0174 51.4916 60.9128 51.2628C60.7714 50.9528 60.651 50.6429 60.5307 50.333C60.4103 50.023 60.3004 49.7131 60.2009 49.3793C60.1276 49.1504 60.0596 48.9168 59.9967 48.6498Z" fill="#FFC900"/>
<path d="M62.5572 100.395C54.4387 102.249 42.761 101.854 35.2863 98.3204C35.2704 98.3103 35.2507 98.3064 35.2315 98.3095C35.2124 98.3126 35.1954 98.3226 35.1843 98.3371C35.1732 98.3517 35.1689 98.3696 35.1723 98.3871C35.1757 98.4045 35.1866 98.42 35.2026 98.4301C41.6303 103.575 55.1506 104.123 62.6043 100.519C62.6191 100.511 62.6305 100.499 62.6365 100.484C62.6425 100.47 62.6427 100.454 62.6371 100.439C62.6315 100.424 62.6205 100.412 62.6059 100.404C62.5913 100.396 62.5741 100.392 62.5572 100.395Z" fill="#FFC900"/>
</svg>
