<svg width="183" height="111" viewBox="0 0 183 111" fill="none" xmlns="http://www.w3.org/2000/svg">
<path d="M79.9253 107.015C73.9863 109.274 67.6467 110.291 61.299 110.002L59.2137 109.917L57.2147 109.735L53.3578 109.279L49.7356 108.645C48.5789 108.478 47.4328 108.245 46.303 107.946C44.0763 107.4 41.9744 106.927 40.0523 106.272L37.1885 105.374L34.534 104.382C28.9678 102.279 23.5907 99.7055 18.461 96.6903C15.3617 94.8795 12.3699 92.8905 9.50081 90.7334C8.04813 89.6701 6.66208 88.5187 5.35046 87.2856L5.43444 87.6387C5.89306 89.3143 6.40559 90.9612 6.90208 92.5129L9.58953 100.819C11.0277 105.606 11.7333 108.689 11.1806 108.983C10.6278 109.277 8.85467 106.657 6.61144 102.178C5.4359 99.9672 4.24037 97.2309 3.00847 94.1336C2.38894 92.5781 1.774 90.9338 1.22391 89.1512C1.08976 88.7038 0.955623 88.2563 0.841265 87.7811L0.658972 87.048L0.574129 86.6608L0.485037 86.1029C0.382532 85.6493 0.372791 85.1796 0.456404 84.7221C0.540017 84.2646 0.715243 83.8287 0.971578 83.4406C1.58531 82.6417 2.42073 82.0411 3.37357 81.7139L3.6971 81.5419L3.9128 81.4272L4.31723 81.2121C4.58685 81.0688 4.8725 81.0206 5.15014 80.9249C5.69911 80.754 6.22829 80.611 6.77094 80.4608C7.82212 80.1613 8.85437 79.9237 9.82552 79.7013C11.8496 79.2476 13.7864 78.8576 15.6289 78.5177C19.321 77.8515 22.6555 77.3581 25.441 77.0356C31.0317 76.3628 34.5138 76.3098 34.5553 76.8756C34.5968 77.4415 31.2086 78.5167 25.75 79.8283C23.0072 80.4912 19.7487 81.29 16.1299 82.1593C14.3376 82.5935 12.4573 83.0573 10.5023 83.5434C9.53205 83.7999 8.56174 84.0565 7.58513 84.3336L6.90051 84.542C7.91197 85.1109 9.45281 86.09 11.9979 87.6246C14.2101 88.9557 17.1169 90.7475 21.0974 92.8676C26.1456 95.5844 31.3915 97.9165 36.7904 99.8443L39.3514 100.921L42.0968 101.726C43.9354 102.322 45.9476 102.757 48.0764 103.216C49.1368 103.484 50.2115 103.692 51.2954 103.839L54.704 104.395L58.3248 104.701C58.9409 104.754 59.5569 104.807 60.1532 104.887C60.7494 104.968 61.4177 104.924 62.0598 104.928C67.5777 105.194 73.0918 104.333 78.2661 102.398C80.9877 101.326 83.4548 99.6956 85.5092 97.6131C87.5221 95.5184 88.9298 92.9174 89.5827 90.0866C86.0212 89.0051 82.5981 87.5114 79.383 85.636C75.483 83.4475 72.0747 80.4803 69.3701 76.9188C68.0613 75.0694 67.0956 72.9999 66.5191 70.8088C65.8146 68.3335 65.9429 65.6953 66.8842 63.3001C67.512 61.7954 68.543 60.4933 69.8636 59.5371C71.2318 58.5516 72.8456 57.9628 74.527 57.8357C77.1405 57.7067 79.7278 58.4069 81.9196 59.8362C85.3228 62.1197 88.1693 65.139 90.2484 68.6708C92.3168 71.8625 93.8447 75.3735 94.7708 79.0624C95.3689 81.5064 95.6182 84.0227 95.5112 86.5366C99.2432 87.3301 103.079 87.5154 106.87 87.0854C109.076 86.7881 111.243 86.2506 113.332 85.4823C115.399 84.6944 117.36 83.6518 119.169 82.3786C122.792 79.7574 125.806 76.3853 128.006 72.4925C129.093 70.6312 129.953 68.6468 130.57 66.5816C130.871 65.5793 131.114 64.5607 131.299 63.5307C131.448 62.5101 131.537 61.4815 131.563 60.4504C131.607 59.38 131.569 58.3077 131.449 57.2431C128.185 56.2774 124.992 55.0862 121.893 53.678C117.874 51.9084 114.118 49.5939 110.731 46.7996C108.903 45.3267 107.42 43.4706 106.387 41.3622C105.737 39.9852 105.637 38.4123 106.106 36.9638C106.253 36.5465 106.447 36.1475 106.684 35.7745C106.922 35.4407 107.159 35.1069 107.411 34.8C107.681 34.4697 107.985 34.169 108.318 33.9031C108.636 33.6016 108.995 33.3465 109.385 33.1455C110.801 32.3009 112.434 31.8895 114.082 31.9623C114.792 31.9658 115.5 32.0349 116.197 32.1689C116.839 32.3036 117.473 32.4748 118.095 32.6814C120.404 33.4937 122.562 34.6837 124.481 36.2029C128.127 39.006 131.097 42.5915 133.172 46.695C134.232 48.7409 135.036 50.9091 135.568 53.1511C135.711 53.7144 135.828 54.292 135.932 54.8768C139.731 55.9018 143.62 56.5614 147.545 56.8467C151.528 57.1613 155.536 56.8999 159.444 56.0705C163.202 55.3047 166.751 53.7363 169.847 51.4727C172.711 49.3237 175.067 46.5715 176.749 43.4109C178.289 40.5785 179.214 37.4528 179.463 34.2383C179.694 28.6255 177.707 23.1472 173.931 18.9883C172.353 17.0854 170.596 15.3385 168.684 13.7717C166.969 12.3171 165.17 10.9641 163.296 9.71972C160.248 7.70204 157.077 5.87668 153.802 4.2543C148.366 1.54228 145.153 0.379648 145.23 0.165998C146.076 0.232499 146.907 0.43302 147.69 0.760069C149.253 1.2605 151.527 2.05732 154.372 3.27698C157.794 4.74283 161.11 6.44686 164.294 8.37651C166.26 9.56311 168.154 10.8659 169.965 12.2779C172.005 13.849 173.894 15.6057 175.609 17.5256C177.507 19.6477 179.069 22.048 180.24 24.6428C181.545 27.5458 182.146 30.7157 181.995 33.8948C181.747 37.4675 180.745 40.9471 179.054 44.1045C177.218 47.7158 174.605 50.8764 171.404 53.3599C167.923 55.9878 163.919 57.8395 159.662 58.7903C155.419 59.7528 151.061 60.108 146.718 59.8454C143.149 59.6308 139.603 59.128 136.114 58.342C136.134 58.8674 136.134 59.3866 136.119 59.9128C136.135 62.4116 135.793 64.8997 135.102 67.3013C134.405 69.7271 133.415 72.0592 132.155 74.2464C129.581 78.83 126.052 82.8063 121.805 85.9053C119.586 87.4657 117.182 88.7442 114.647 89.7114C112.161 90.6456 109.576 91.2947 106.943 91.6461C102.847 92.1504 98.6975 92.024 94.6395 91.2713C93.6674 94.8093 91.8199 98.0455 89.2676 100.681C86.5854 103.409 83.3601 105.542 79.8006 106.943L79.9253 107.015ZM130.59 53.2211C130.169 51.6952 129.601 50.2135 128.895 48.7966C127.097 45.1537 124.511 41.9566 121.324 39.4376C119.771 38.183 118.023 37.1909 116.149 36.5005C115.707 36.3203 115.241 36.2568 114.787 36.1179C114.343 36.0364 113.895 35.986 113.444 35.9672C112.701 35.9028 111.955 36.0643 111.304 36.4306C111.145 36.4722 110.997 36.5507 110.873 36.6599C110.738 36.7316 110.59 36.8105 110.506 37.0106L110.271 37.4468C110.198 37.548 110.141 37.66 110.102 37.7789C109.934 38.3988 110.001 39.0591 110.292 39.632C111.117 41.2856 112.283 42.746 113.712 43.9177C116.816 46.5369 120.26 48.7252 123.949 50.4232C126.133 51.4522 128.356 52.3801 130.617 53.2068L130.59 53.2211ZM90.0204 84.9256C89.6704 80.1594 88.1018 75.5631 85.4649 71.5773C83.73 68.6223 81.3702 66.0822 78.5507 64.1348C77.3301 63.313 75.8924 62.8734 74.4209 62.8722C73.8716 62.8899 73.3401 63.072 72.8953 63.3948C72.4504 63.7177 72.1126 64.1665 71.9254 64.6833C71.4105 66.1414 71.3689 67.7248 71.8066 69.2079C72.25 70.9027 72.9908 72.5053 73.9947 73.9411C76.3335 77.0011 79.2639 79.5594 82.6116 81.4639C84.9867 82.8567 87.4881 84.0221 90.0823 84.9445" fill="#0E0E0E"/>
</svg>
