<svg width="63" height="60" viewBox="0 0 63 60" fill="none" xmlns="http://www.w3.org/2000/svg">
<path d="M22.235 23.9856C22.0449 25.7525 23.3672 27.4768 25.1227 27.752C26.6073 27.9824 28.0837 27.1368 28.736 25.8352C29.0034 25.9307 28.2813 25.8614 39.4081 25.884C39.8091 25.884 40.1345 25.5586 40.1345 25.1575C40.1345 24.7565 39.8091 24.4311 39.4081 24.4311H29.0855C29.1 22.8927 28.0281 21.4119 26.5094 21.0222C26.3987 20.9948 26.2861 20.9938 26.1783 21.0147C26.1314 20.9879 26.0731 20.9837 26.0203 20.9678V7.21452C26.0203 6.81347 25.695 6.4881 25.2939 6.4881C24.8929 6.4881 24.5675 6.81347 24.5675 7.21452V21.1076C23.3492 21.5423 22.3779 22.6638 22.235 23.9856Z" fill="black"/>
<path d="M42.2723 45.1757C41.9885 44.892 41.5288 44.892 41.245 45.1757C40.9613 45.4595 40.9613 45.9192 41.245 46.2029C45.8783 50.7255 45.678 50.8802 46.2231 50.8802C46.7952 50.8802 46.3514 50.9377 56.5075 40.8966C56.7912 40.6129 56.7912 40.1532 56.5075 39.8694C56.2237 39.5857 55.764 39.5857 55.4803 39.8694L46.2231 49.1266L42.2723 45.1757Z" fill="black"/>
<path d="M8.26303 44.3602C14.6844 50.1344 24.2455 52.1936 32.4586 49.5255C33.1573 49.2985 33.8546 49.0176 34.4673 48.6218C35.0881 53.3558 38.9887 57.7206 42.886 59.0912C47.1069 60.5755 52.0223 60.2869 55.8013 57.8912C58.9431 55.8995 61.5105 52.2244 61.9226 48.4969C64.0147 39.8413 57.383 31.8508 48.8378 31.8452C54.0059 16.3457 42.1719 0.189512 25.661 0.00134469C18.6034 -0.0699442 12.3032 2.69677 7.84732 7.47638C4.12299 11.0769 1.44596 15.7795 0.448253 20.8541C-1.21765 29.3273 1.84174 38.5862 8.26303 44.3602ZM24.9733 4.10544C25.3744 4.10544 25.6998 3.78007 25.6998 3.37902V1.4562C31.9887 1.54239 37.6908 4.13406 41.8313 8.25707C41.6172 8.42408 41.1539 8.92138 40.2812 9.78346C39.8213 10.2434 40.1546 11.0235 40.7948 11.0235C41.3063 11.0235 41.3744 10.655 42.7849 9.33323C42.7955 9.32259 42.7989 9.3084 42.8087 9.2974C46.3777 13.314 48.5584 18.5563 48.5894 24.2703H47.5483C47.1472 24.2703 46.8218 24.5957 46.8218 24.9967C46.8218 25.3978 47.1472 25.7231 47.5483 25.7231H48.537C48.3367 29.2001 47.48 31.2313 47.2877 31.928C43.4611 32.2983 39.7749 34.3546 37.7368 36.8247C35.7695 39.209 34.6407 42.2202 34.3885 45.3032C31.8261 46.3659 29.4488 47.0064 26.6096 47.1933C26.7024 46.9463 26.6415 46.9428 26.6608 45.3384C26.6608 44.9374 26.3354 44.612 25.9343 44.612C25.5333 44.612 25.2079 44.9374 25.2079 45.3384C25.2319 46.9289 25.1555 46.9765 25.2779 47.2415C19.8129 47.2791 14.8474 45.282 11.2338 42.3268L12.0444 41.5162C12.3281 41.2324 12.3281 40.7728 12.0444 40.489C11.7606 40.2052 11.3009 40.2052 11.0171 40.489L10.1364 41.3697C6.05799 37.5957 3.54341 32.5571 2.89059 27.1646H6.23676C6.6378 27.1646 6.96318 26.8393 6.96318 26.4382C6.96318 26.0372 6.6378 25.7118 6.23676 25.7118H2.76703C2.40504 19.4691 4.57349 13.5457 8.18228 9.23379C9.55773 10.5235 9.68736 10.9554 10.2046 10.9554C10.8448 10.9554 11.1782 10.1753 10.7183 9.71535L9.15102 8.14806C13.0123 4.11514 18.2729 1.75852 24.2469 1.48883V3.37902C24.2469 3.78007 24.5723 4.10544 24.9733 4.10544ZM60.8603 45.3299C60.8603 51.9699 55.4632 57.3727 48.829 57.3727C44.0542 57.3727 39.5983 54.4159 37.7406 50.0138C36.0835 46.0885 36.4741 41.4604 38.7347 38.2227C40.9196 35.0929 44.5981 33.2976 48.829 33.2976C55.4632 33.2976 60.8603 38.6956 60.8603 45.3299Z" fill="black"/>
<path d="M50.6658 3.97019C50.3025 3.79331 49.8703 3.95033 49.6972 4.3107L47.5813 8.71747C47.4073 9.07974 47.5595 9.51389 47.9209 9.68698C48.2796 9.8597 48.7157 9.71138 48.8904 9.34742L51.0063 4.93875C51.1803 4.57743 51.028 4.14328 50.6658 3.97019Z" fill="black"/>
<path d="M54.9438 7.69687C54.5948 7.49634 54.1512 7.61836 53.9525 7.96738C53.0738 9.50536 51.9426 10.8636 50.5891 12.0034C50.0695 12.4412 50.386 13.285 51.0573 13.285C51.2228 13.285 51.3893 13.2292 51.5255 13.1138C53.0095 11.8643 54.2505 10.3746 55.2143 8.68813C55.413 8.34005 55.2919 7.89644 54.9438 7.69687Z" fill="black"/>
<path d="M53.3616 16.5218C53.5066 16.5218 53.2705 16.5518 57.7419 15.6034C58.1344 15.5201 58.3851 15.1342 58.3009 14.7417C58.2177 14.3491 57.8308 14.0966 57.4392 14.1827L53.2112 15.085C52.3615 15.2652 52.4972 16.5218 53.3616 16.5218Z" fill="black"/>
</svg>
