<svg width="29" height="29" viewBox="0 0 29 29" fill="none" xmlns="http://www.w3.org/2000/svg">
<path fill-rule="evenodd" clip-rule="evenodd" d="M14.5 28.5C22.232 28.5 28.5 22.232 28.5 14.5C28.5 6.76801 22.232 0.5 14.5 0.5C6.76801 0.5 0.5 6.76801 0.5 14.5C0.5 22.232 6.76801 28.5 14.5 28.5ZM20.9874 12.2374C21.6709 11.554 21.6709 10.446 20.9874 9.76256C20.304 9.07915 19.196 9.07915 18.5126 9.76256L12.75 15.5251L10.4874 13.2626C9.80402 12.5791 8.69598 12.5791 8.01256 13.2626C7.32915 13.946 7.32915 15.054 8.01256 15.7374L11.5126 19.2374C12.196 19.9209 13.304 19.9209 13.9874 19.2374L20.9874 12.2374Z" fill="#0C9347"/>
</svg>
