<svg width="22" height="22" viewBox="0 0 22 22" fill="none" xmlns="http://www.w3.org/2000/svg">
<path fill-rule="evenodd" clip-rule="evenodd" d="M11.0001 21.3996C16.7439 21.3996 21.4001 16.7434 21.4001 10.9996C21.4001 5.25585 16.7439 0.599609 11.0001 0.599609C5.25634 0.599609 0.600098 5.25585 0.600098 10.9996C0.600098 16.7434 5.25634 21.3996 11.0001 21.3996ZM15.8193 9.31885C16.327 8.81117 16.327 7.98805 15.8193 7.48037C15.3117 6.97269 14.4885 6.97269 13.9809 7.48037L9.7001 11.7611L8.01934 10.0804C7.51165 9.57269 6.68854 9.57269 6.18086 10.0804C5.67318 10.5881 5.67318 11.4112 6.18086 11.9188L8.78086 14.5188C9.28854 15.0265 10.1117 15.0265 10.6193 14.5188L15.8193 9.31885Z" fill="#0E0E0E"/>
</svg>
